<svg width="61" height="60" viewBox="0 0 61 60" fill="none" xmlns="http://www.w3.org/2000/svg">
<g clip-path="url(#clip0_2914_22835)">
<path d="M30.5 5C16.7 5 5.5 16.2 5.5 30C5.5 43.8 16.7 55 30.5 55C44.3 55 55.5 43.8 55.5 30C55.5 16.2 44.3 5 30.5 5ZM23.725 40.725L14.75 31.75C13.775 30.775 13.775 29.2 14.75 28.225C15.725 27.25 17.3 27.25 18.275 28.225L25.5 35.425L42.7 18.225C43.675 17.25 45.25 17.25 46.225 18.225C47.2 19.2 47.2 20.775 46.225 21.75L27.25 40.725C26.3 41.7 24.7 41.7 23.725 40.725Z" fill="#00ED42"/>
</g>
<defs>
<clipPath id="clip0_2914_22835">
<rect width="60" height="60" fill="white" transform="translate(0.5)"/>
</clipPath>
</defs>
</svg>
