<svg width="25" height="24" viewBox="0 0 25 24" fill="none" xmlns="http://www.w3.org/2000/svg">
<path fill-rule="evenodd" clip-rule="evenodd" d="M11.6674 4.22217H8.33336C7.25947 4.22217 6.38892 5.09272 6.38892 6.16661V17.8333C6.38892 18.9072 7.25947 19.7777 8.33336 19.7777H16.6667C17.7406 19.7777 18.6111 18.9072 18.6111 17.8333V11.1166H13.4769C12.4803 11.1166 11.6722 10.3091 11.6714 9.31249L11.6674 4.22217ZM9.1945 16.4444C9.1945 15.9074 9.62978 15.4722 10.1667 15.4722H14.8334C15.3703 15.4722 15.8056 15.9074 15.8056 16.4444C15.8056 16.9813 15.3703 17.4166 14.8334 17.4166H10.1667C9.62978 17.4166 9.1945 16.9813 9.1945 16.4444Z" fill="#6A6A6A"/>
<path d="M18.293 9.72773H13.4769C13.2469 9.72773 13.0604 9.54138 13.0603 9.31139L13.0565 4.50913C13.1855 4.58829 13.3059 4.68287 13.4147 4.79168L18.0416 9.41859C18.1365 9.51348 18.2206 9.61716 18.293 9.72773Z" fill="#6A6A6A"/>
</svg>
