<svg width="24" height="24" viewBox="0 0 24 24" fill="none" xmlns="http://www.w3.org/2000/svg">
<path fill-rule="evenodd" clip-rule="evenodd" d="M6.33341 4.66666C4.30837 4.66666 2.66675 6.30828 2.66675 8.33332V15.6667C2.66675 17.6917 4.30837 19.3333 6.33342 19.3333H17.6667C19.6918 19.3333 21.3334 17.6917 21.3334 15.6667V8.33332C21.3334 6.30828 19.6918 4.66666 17.6667 4.66666H6.33341ZM4.66675 8.33332C4.66675 7.41285 5.41294 6.66666 6.33341 6.66666H17.6667C18.5872 6.66666 19.3334 7.41285 19.3334 8.33332V15.6667C19.3334 16.5871 18.5872 17.3333 17.6667 17.3333H6.33342C5.41294 17.3333 4.66675 16.5871 4.66675 15.6667V8.33332ZM7.42296 8.76047C6.92249 8.52692 6.32745 8.7433 6.09389 9.24377C5.86034 9.74424 6.07672 10.3393 6.57719 10.5728L11.2953 12.7746C11.742 12.9831 12.2581 12.9831 12.7049 12.7746L17.423 10.5728C17.9234 10.3393 18.1398 9.74424 17.9063 9.24377C17.6727 8.7433 17.0777 8.52692 16.5772 8.76047L12.0001 10.8965L7.42296 8.76047Z" fill="#6A6A6A"/>
</svg>
